<svg width="20" height="20" viewBox="0 0 20 20" fill="none" xmlns="http://www.w3.org/2000/svg">
<g clip-path="url(#clip0)">
<path d="M18.7672 11.6911C18.8722 11.1437 18.9277 10.5788 18.9277 10.0008C18.9277 5.07004 14.9303 1.07286 9.99962 1.07286C9.42158 1.07286 8.85664 1.12844 8.30914 1.23342C6.3381 -0.484759 3.34554 -0.406875 1.46869 1.46992C-0.408224 3.34665 -0.486169 6.33939 1.23219 8.31055C1.12727 8.85792 1.07169 9.42287 1.07169 10.0008C1.07169 14.9317 5.06911 18.9289 9.99968 18.9289C10.5778 18.9289 11.1428 18.8733 11.6903 18.7683C13.6613 20.4865 16.6539 20.4086 18.5307 18.5318C20.4074 16.6551 20.4855 13.6623 18.7672 11.6911ZM10.1698 15.4998C7.52552 15.4998 5.32204 14.3179 5.32204 12.8755C5.32204 12.2345 5.68242 11.6534 6.50363 11.6534C7.7659 11.6534 7.88621 13.4563 10.05 13.4563C11.0914 13.4563 11.7526 12.9955 11.7526 12.3947C11.7526 11.6534 11.1116 11.5333 10.0699 11.2729L8.34715 10.8523C6.64406 10.4315 5.32204 9.73041 5.32204 7.76712C5.32204 5.38321 7.68571 4.50188 9.70906 4.50188C11.9329 4.50188 14.1765 5.38321 14.1765 6.7253C14.1765 7.40631 13.7154 8.00769 12.9544 8.00769C11.8125 8.00769 11.7721 6.66541 9.92955 6.66541C8.90797 6.66541 8.2469 6.9458 8.2469 7.56693C8.2469 8.24794 8.90797 8.40802 9.80967 8.60851L11.0313 8.88908C12.6937 9.26941 14.6774 9.97066 14.6774 12.0144C14.6774 14.3979 12.3732 15.4998 10.1698 15.4998Z" fill="white"/>
</g>
<defs>
<clipPath id="clip0">
<rect width="20" height="20" fill="white"/>
</clipPath>
</defs>
</svg>
