<svg width="20" height="20" viewBox="0 0 20 20" fill="none" xmlns="http://www.w3.org/2000/svg">
<g clip-path="url(#clip0)">
<path d="M18.2142 17.8567C18.6637 17.8567 19.0533 17.7082 19.3845 17.4151L13.7181 11.7486C13.5822 11.8459 13.4504 11.9406 13.3259 12.0306C12.9019 12.343 12.5577 12.5868 12.2935 12.7615C12.0292 12.9366 11.6777 13.1151 11.2388 13.2973C10.7997 13.4797 10.3905 13.5707 10.011 13.5707H9.99991H9.9888C9.60923 13.5707 9.20012 13.4798 8.761 13.2973C8.32189 13.1151 7.97033 12.9366 7.70635 12.7615C7.44211 12.5868 7.09813 12.3431 6.67387 12.0306C6.55565 11.944 6.42453 11.8489 6.28277 11.7471L0.615356 17.4151C0.946478 17.7082 1.33628 17.8567 1.78581 17.8567H18.2142Z" fill="white"/>
<path d="M1.12735 8.18058C0.703347 7.8979 0.327345 7.57415 0 7.20947V15.8306L4.99427 10.8364C3.99513 10.1388 2.7078 9.25459 1.12735 8.18058Z" fill="white"/>
<path d="M18.8839 8.18058C17.3637 9.20949 16.0717 10.0953 15.0077 10.8384L20 15.8309V7.20947C19.6799 7.56681 19.3079 7.89034 18.8839 8.18058Z" fill="white"/>
<path d="M18.2153 2.14258H1.78694C1.21381 2.14258 0.773173 2.33612 0.464492 2.72279C0.155556 3.10965 0.00134277 3.59346 0.00134277 4.17368C0.00134277 4.64235 0.205992 5.15016 0.61511 5.69726C1.02423 6.24414 1.45956 6.6737 1.9209 6.98616C2.1738 7.16485 2.93648 7.69506 4.20894 8.57662C4.89583 9.05263 5.49319 9.46752 6.00652 9.82555C6.44407 10.1304 6.82141 10.3944 7.13296 10.6135C7.16873 10.6386 7.22498 10.6789 7.29963 10.7322C7.38006 10.79 7.48184 10.8633 7.60741 10.954C7.8492 11.1289 8.05008 11.2702 8.21006 11.3782C8.36983 11.4862 8.56341 11.6069 8.7905 11.7409C9.01741 11.8747 9.23142 11.9753 9.4323 12.0422C9.63321 12.1091 9.81919 12.1427 9.99029 12.1427H10.0014H10.0125C10.1836 12.1427 10.3696 12.1091 10.5705 12.0422C10.7714 11.9753 10.9852 11.8749 11.2123 11.7409C11.4392 11.6069 11.6325 11.486 11.7928 11.3782C11.9528 11.2702 12.1536 11.1289 12.3955 10.954C12.5208 10.8633 12.6226 10.79 12.703 10.7324C12.7777 10.6788 12.8339 10.6388 12.8699 10.6135C13.1126 10.4447 13.4908 10.1817 13.9993 9.82863C14.9246 9.18574 16.2873 8.23951 18.0931 6.98616C18.6362 6.60682 19.0899 6.14904 19.4546 5.61349C19.8186 5.07794 20.0011 4.51617 20.0011 3.92836C20.0011 3.43725 19.8242 3.01702 19.4711 2.66702C19.1175 2.31745 18.6989 2.14258 18.2153 2.14258Z" fill="white"/>
</g>
<defs>
<clipPath id="clip0">
<rect width="20" height="20" fill="white"/>
</clipPath>
</defs>
</svg>
