<svg width="22" height="33" viewBox="0 0 22 33" fill="none" xmlns="http://www.w3.org/2000/svg">
<rect x="1" y="7" width="20" height="20" rx="4" fill="white" stroke="white" stroke-width="2"/>
<path d="M3.84 12.996H7.08C7.928 12.996 8.58 13.232 9.036 13.704C9.492 14.168 9.72 14.768 9.72 15.504C9.72 16.208 9.508 16.764 9.084 17.172C8.788 17.452 8.42 17.636 7.98 17.724L10.488 21H7.908L5.916 17.928V21H3.84V12.996ZM5.916 14.604V16.584H6.312C6.76 16.584 7.096 16.476 7.32 16.26C7.496 16.084 7.584 15.86 7.584 15.588C7.584 15.308 7.492 15.084 7.308 14.916C7.1 14.708 6.768 14.604 6.312 14.604H5.916ZM11.2434 12.996H13.3194V17.736C13.3194 18.296 13.4554 18.708 13.7274 18.972C13.9994 19.228 14.3274 19.356 14.7114 19.356C15.0954 19.356 15.4154 19.24 15.6714 19.008C15.8154 18.88 15.9234 18.72 15.9954 18.528C16.0754 18.328 16.1194 18.172 16.1274 18.06C16.1354 17.94 16.1394 17.772 16.1394 17.556V12.996H18.2154V17.592C18.2154 17.944 18.2034 18.236 18.1794 18.468C18.1554 18.692 18.0714 18.968 17.9274 19.296C17.7914 19.616 17.5874 19.912 17.3154 20.184C16.6594 20.848 15.7794 21.18 14.6754 21.18C13.5074 21.18 12.6234 20.86 12.0234 20.22C11.5034 19.652 11.2434 18.776 11.2434 17.592V12.996Z" fill="#595F6F"/>
</svg>
