<svg width="16" height="20" viewBox="0 0 16 20" fill="none" xmlns="http://www.w3.org/2000/svg">
<path d="M7.99975 0C3.94011 0 0.636963 3.30314 0.636963 7.3632C0.636963 8.42222 0.85372 9.43334 1.28089 10.3687C3.12179 14.3971 6.65131 18.6501 7.68945 19.8575C7.76723 19.9478 7.88062 19.9998 7.99995 19.9998C8.11928 19.9998 8.23268 19.9478 8.31046 19.8575C9.34819 18.6503 12.8777 14.3975 14.7192 10.3687C15.1466 9.43334 15.3631 8.42222 15.3631 7.3632C15.3627 3.30314 12.0596 0 7.99975 0ZM7.99975 11.1877C5.89092 11.1877 4.17508 9.47182 4.17508 7.36299C4.17508 5.25396 5.89092 3.53812 7.99975 3.53812C10.1086 3.53812 11.8244 5.25396 11.8244 7.36299C11.8246 9.47182 10.1088 11.1877 7.99975 11.1877Z" fill="white"/>
</svg>
