<svg width="22" height="33" viewBox="0 0 22 33" fill="none" xmlns="http://www.w3.org/2000/svg">
<rect x="1" y="7" width="20" height="20" rx="4" fill="white" stroke="white" stroke-width="2"/>
<path d="M8.176 21H4.84V12.996H7.936C8.728 12.996 9.312 13.204 9.688 13.62C10.016 13.98 10.18 14.48 10.18 15.12C10.18 15.472 10.104 15.8 9.952 16.104C9.792 16.4 9.576 16.608 9.304 16.728C9.752 16.776 10.116 16.936 10.396 17.208C10.756 17.552 10.936 18.04 10.936 18.672C10.936 19.328 10.74 19.852 10.348 20.244C9.86 20.748 9.136 21 8.176 21ZM6.916 14.592V16.152H7.3C7.668 16.152 7.932 16.068 8.092 15.9C8.22 15.772 8.284 15.596 8.284 15.372C8.284 15.156 8.22 14.976 8.092 14.832C7.932 14.672 7.668 14.592 7.3 14.592H6.916ZM6.916 17.7V19.38H7.384C8.056 19.38 8.484 19.272 8.668 19.056C8.78 18.928 8.836 18.756 8.836 18.54C8.836 18.292 8.768 18.1 8.632 17.964C8.456 17.788 8.028 17.7 7.348 17.7H6.916ZM13.5683 21V17.16L10.6763 12.996H13.1603L14.6723 15.18L16.1243 12.996H18.6443L15.6563 17.16V21H13.5683Z" fill="#595F6F"/>
</svg>
